<svg width="24" height="25" viewBox="0 0 24 25" fill="none" xmlns="http://www.w3.org/2000/svg">
<g clip-path="url(#clip0_504_15655)">
<path d="M0.746391 8.32613C0.264047 9.62616 0 11.0322 0 12.5C0 13.9679 0.264047 15.374 0.746391 16.6739L12 17.7174L23.2536 16.6739C23.736 15.374 24 13.9679 24 12.5C24 11.0322 23.736 9.62616 23.2536 8.32613L12 7.28265L0.746391 8.32613Z" fill="#F0F0F0"/>
<path d="M12 0.5C6.84049 0.5 2.44193 3.7565 0.74646 8.32611H23.2537C21.5581 3.7565 17.1596 0.5 12 0.5Z" fill="#D80027"/>
<path d="M12 24.5C17.1596 24.5 21.5581 21.2435 23.2537 16.6739H0.74646C2.44193 21.2435 6.84049 24.5 12 24.5Z" fill="#6DA544"/>
</g>
<defs>
<clipPath id="clip0_504_15655">
<rect width="24" height="24" fill="white" transform="translate(0 0.5)"/>
</clipPath>
</defs>
</svg>
