<svg width="32" height="32" viewBox="0 0 32 32" fill="none" xmlns="http://www.w3.org/2000/svg">
<g clip-path="url(#clip0_509_218)">
<path d="M25.4251 18.592C25.6271 18.592 25.8254 18.6061 26.0186 18.6327V17.3145C25.8237 17.295 25.627 17.2844 25.4251 17.2844C25.2249 17.2844 25.0282 17.295 24.8333 17.3163V18.6326C25.0265 18.6061 25.2249 18.592 25.4251 18.592ZM0.924124 6.70736L5.64399 4.50693C5.82468 4.42186 6.01961 4.38111 6.21449 4.37936C6.41293 4.37761 6.6078 4.41836 6.78674 4.4963C6.93736 4.56186 7.0773 4.65399 7.19599 4.77093C7.31467 4.8843 7.41211 5.01899 7.48299 5.17136L7.57155 5.36093L8.24305 1.54993C8.33161 1.04325 8.62217 0.617997 9.01729 0.341685C9.41061 0.0653106 9.90848 -0.0605016 10.4134 0.0280607L11.898 0.29031C12.1532 0.334623 12.3232 0.57731 12.279 0.832434C12.2347 1.08581 11.992 1.25768 11.7369 1.21337L10.2699 0.954684C10.2592 0.952934 10.2486 0.951121 10.238 0.947621C9.98817 0.908621 9.74367 0.972434 9.55054 1.10712C9.35917 1.24175 9.21573 1.44906 9.16786 1.69706C9.16611 1.70768 9.16429 1.72006 9.16254 1.73074L8.26073 6.84036L9.68692 9.89835C10.0094 10.5875 9.70286 11.4131 9.01898 11.732L7.25436 12.5541L4.6518 27.307C4.60755 27.5621 4.6713 27.8119 4.80774 28.0086C4.94593 28.2053 5.15855 28.3505 5.41186 28.3948L16.8181 30.4057C17.0732 30.45 17.2433 30.6927 17.199 30.9479C17.1547 31.203 16.912 31.3731 16.6568 31.3287L5.25062 29.3179C4.74393 29.2275 4.31868 28.9387 4.04231 28.5436C3.76768 28.1503 3.64012 27.6524 3.73043 27.1458L6.21793 13.0377L4.29387 13.9359C4.13087 14.0103 3.95724 14.0528 3.78362 14.0617C3.60468 14.0705 3.42749 14.044 3.26274 13.989C3.09268 13.9288 2.92962 13.8349 2.78968 13.7091C2.65325 13.5868 2.53987 13.438 2.46018 13.2679L0.25625 8.54111C0.178313 8.37279 0.135813 8.19205 0.130438 8.01136C0.123375 7.82711 0.1535 7.6428 0.21725 7.47273C0.27925 7.30798 0.373187 7.15386 0.495437 7.02273C0.614124 6.89342 0.759374 6.78536 0.924124 6.70736ZM6.03911 5.35555L1.31925 7.5578C1.09781 7.66055 1.00212 7.92455 1.10669 8.14604L3.30887 12.8712C3.41343 13.0944 3.67737 13.1883 3.89706 13.0855L8.62398 10.8815C8.84373 10.7788 8.94117 10.5148 8.83661 10.2934L6.63436 5.56817C6.52986 5.34493 6.2623 5.2528 6.03911 5.35555ZM4.47818 9.27104C4.37012 9.03717 4.47112 8.75723 4.70493 8.64917C4.94062 8.53936 5.21874 8.64211 5.32862 8.87598L5.46505 9.16829C5.57311 9.40217 5.47212 9.68204 5.2383 9.79017C5.00268 9.90004 4.72449 9.79729 4.61468 9.56335L4.47818 9.27104ZM6.39874 9.88935C6.28886 9.65367 6.38986 9.37554 6.62549 9.26573C6.85936 9.15761 7.1393 9.25861 7.24736 9.49423L7.3838 9.78479C7.49361 10.0204 7.39086 10.2986 7.15705 10.4084C6.92142 10.5165 6.64324 10.4155 6.53518 10.1817L6.39874 9.88935ZM2.55943 8.65448C2.44956 8.41886 2.55237 8.14073 2.78618 8.03086C3.02187 7.9228 3.29999 8.02379 3.40806 8.25761L3.54449 8.54992C3.65431 8.78554 3.55337 9.06373 3.31774 9.1736C3.08387 9.28167 2.80393 9.18067 2.69587 8.94504L2.55943 8.65448ZM5.24005 7.40367C5.13024 7.1698 5.23118 6.89167 5.4668 6.7818C5.70068 6.67199 5.98061 6.77473 6.08868 7.00861L6.22511 7.30092C6.33493 7.5348 6.23218 7.81473 5.9983 7.92279C5.76261 8.03261 5.48449 7.93167 5.37643 7.69598L5.24005 7.40367ZM3.71812 11.1384C3.60831 10.9045 3.71106 10.6246 3.94493 10.5165C4.18055 10.4067 4.45868 10.5095 4.56674 10.7434L4.70318 11.0357C4.81299 11.2695 4.71205 11.5495 4.47643 11.6575C4.24256 11.7674 3.96262 11.6646 3.85456 11.4308L3.71812 11.1384ZM23.9581 16.5156L26.0664 4.68943C26.1107 4.43611 26.0487 4.1863 25.9105 3.99137C25.7741 3.79468 25.5615 3.65118 25.3081 3.60512L13.8275 1.58181C13.5741 1.5375 13.4023 1.29481 13.4465 1.03968C13.4908 0.784497 13.7336 0.614435 13.9887 0.658747L25.4693 2.68206C25.9761 2.77237 26.4013 3.06299 26.6759 3.4563C26.9523 3.84962 27.0781 4.34574 26.9894 4.85061L24.9361 16.365C25.0973 16.3526 25.2603 16.3473 25.4251 16.3473C26.0682 16.3473 26.6954 16.4412 27.3084 16.629C27.9284 16.8185 28.5078 17.0967 29.0269 17.4475C29.2413 17.591 29.298 17.8833 29.1545 18.0977C29.0092 18.3121 28.7186 18.3688 28.5043 18.2235C28.0277 17.9028 27.5068 17.6566 26.9558 17.4972V18.8791C27.4997 19.0916 27.9886 19.4159 28.3962 19.8216C28.8019 20.2274 29.1244 20.7164 29.3388 21.262H30.7189C30.7029 21.2088 30.687 21.1575 30.671 21.1043C30.4938 20.5534 30.2334 20.0413 29.9039 19.5825C29.7533 19.3734 29.8011 19.0811 30.0102 18.9305C30.2193 18.7798 30.5116 18.8276 30.6622 19.0368C31.0484 19.5754 31.3549 20.176 31.5604 20.8191C31.7677 21.4605 31.8705 22.1178 31.8705 22.791C31.8705 24.499 31.2008 26.1306 29.9818 27.3496C28.7647 28.5668 27.1329 29.2365 25.425 29.2365C24.5143 29.2365 23.6179 29.0469 22.7851 28.6731L22.4751 30.4519C22.3865 30.9586 22.096 31.3838 21.7026 31.6584C21.3093 31.9347 20.8115 32.0606 20.3065 31.972L18.7492 31.6973C18.4941 31.6531 18.324 31.4103 18.3683 31.1552C18.4126 30.9001 18.6553 30.7299 18.9104 30.7743L20.4678 31.0489C20.7229 31.0931 20.9709 31.0311 21.1676 30.8929C21.3643 30.7565 21.5078 30.5439 21.5521 30.2906L21.917 28.1982C21.5379 27.9519 21.1871 27.6667 20.8681 27.3495C19.651 26.1305 18.9813 24.4988 18.9813 22.7909C18.9813 21.0848 19.651 19.453 20.8681 18.2341C21.7045 17.3996 22.7675 16.792 23.9581 16.5156ZM23.0138 6.94305C23.0439 7.00505 23.0881 7.05823 23.1449 7.10248C23.2016 7.14673 23.2707 7.17867 23.3486 7.19286C23.4762 7.21592 23.6002 7.1858 23.6959 7.11848C23.7916 7.05117 23.8625 6.94661 23.8837 6.81905C23.905 6.7003 23.8801 6.58511 23.8217 6.49305C23.7615 6.39736 23.6694 6.32474 23.556 6.29286C23.308 6.22555 23.1608 5.96686 23.23 5.7188C23.2441 5.66924 23.2654 5.62492 23.2902 5.58592C23.3735 5.43355 23.3628 5.23693 23.2655 5.09518C23.1201 4.88786 22.826 4.83649 22.6188 4.9818C22.4682 5.08811 22.3973 5.27411 22.4327 5.45305C22.4823 5.70642 22.3158 5.95267 22.0624 6.0023C22.0181 6.01117 21.9738 6.01292 21.9295 6.00761C21.8161 6.0023 21.7063 6.03774 21.6195 6.10505C21.5327 6.17236 21.4689 6.27161 21.4476 6.38855C21.4264 6.51605 21.4565 6.64011 21.5238 6.7358C21.5911 6.83148 21.6957 6.90236 21.8215 6.92361C21.8994 6.9378 21.9774 6.93067 22.0465 6.90767C22.1138 6.88642 22.174 6.84917 22.2236 6.80311C22.3281 6.68261 22.4894 6.62067 22.6576 6.64899C22.826 6.67905 22.9571 6.79417 23.0138 6.94305ZM21.9685 7.86611C21.8675 7.87142 21.7647 7.86436 21.6602 7.84661C21.2811 7.77923 20.9639 7.56486 20.7584 7.2708C20.5529 6.97667 20.459 6.60642 20.5263 6.2273C20.5883 5.87117 20.7796 5.56999 21.0454 5.36449C21.1818 5.25818 21.3377 5.17843 21.5061 5.1288C21.5699 4.75674 21.7754 4.43249 22.0855 4.21636C22.3778 4.01087 22.7498 3.91693 23.1272 3.9843C23.5064 4.04987 23.8235 4.26599 24.0308 4.56005C24.247 4.87011 24.3267 5.24218 24.2611 5.61424C24.4011 5.71874 24.5198 5.84811 24.6119 5.99517C24.7908 6.27861 24.8688 6.62586 24.8068 6.98023C24.7395 7.35936 24.5251 7.67648 24.231 7.88386C23.9369 8.08936 23.5648 8.18323 23.1875 8.11592C23.083 8.09817 22.9837 8.06804 22.8898 8.02911L22.7995 8.54823C22.7552 8.80342 22.5125 8.97348 22.2574 8.92917C22.0023 8.88492 21.8321 8.64217 21.8765 8.38704L21.9685 7.86611ZM16.0652 18.1596C16.3628 18.351 16.7295 18.4325 17.0821 18.39C17.3266 18.3598 17.5622 18.2713 17.7713 18.126C18.4357 17.66 18.6199 16.7476 18.1876 16.062C17.9909 15.7483 17.6827 15.5074 17.3088 15.4029C17.0608 15.3338 16.9138 15.0769 16.9828 14.8272C17.0147 14.712 17.1087 14.5862 17.1565 14.4586C17.1883 14.3753 17.2132 14.2832 17.2308 14.184C17.3035 13.7659 17.2025 13.3601 16.9793 13.0395C16.4956 12.3503 15.5371 12.1837 14.8497 12.6657C14.676 12.7862 14.5272 12.9438 14.4173 13.1298C14.2738 13.3672 14.1942 13.6578 14.1977 13.936C14.1977 14.0263 14.2083 14.1203 14.2277 14.216C14.2561 14.3559 14.2171 14.4942 14.1356 14.5969C14.0364 14.7209 13.8822 14.7865 13.7245 14.7723C13.3383 14.7457 12.9698 14.8662 12.681 15.0912C12.3922 15.3143 12.1832 15.6422 12.1141 16.0302C12.0414 16.4483 12.1425 16.854 12.3657 17.1729C12.5889 17.4918 12.9362 17.7275 13.3525 17.8001C13.5651 17.8373 13.76 17.832 13.9691 17.7824C14.2207 17.7239 14.474 17.8798 14.5325 18.1314C14.5572 18.2342 14.5448 18.337 14.5059 18.4255L14.1357 19.4815L15.3192 19.6905L15.3315 18.5389C15.3333 18.2802 15.5442 18.0729 15.8028 18.0747C15.9004 18.0764 15.9908 18.1065 16.0652 18.1596ZM16.2583 19.2546L16.2477 20.2148C16.2689 20.5161 16.0014 20.7623 15.7002 20.7091L13.4395 20.3105C13.1543 20.261 12.9718 19.9757 13.0693 19.694L13.4023 18.7497C12.6777 18.6877 12.0187 18.3033 11.6005 17.708C11.239 17.1906 11.0743 16.5368 11.1912 15.8689C11.3029 15.2417 11.6395 14.712 12.1054 14.3505C12.4385 14.0918 12.8372 13.9182 13.2641 13.858C13.2818 13.0767 13.6681 12.3521 14.3147 11.9003C15.4309 11.119 16.9617 11.39 17.7448 12.5062C18.1062 13.0235 18.271 13.6773 18.154 14.3452C18.1328 14.4657 18.1009 14.5862 18.0601 14.7049C18.441 14.9087 18.7546 15.2063 18.9796 15.5624C19.6777 16.675 19.3835 18.1367 18.3063 18.8914C17.7058 19.3113 16.9617 19.4406 16.2583 19.2546ZM8.34936 26.0296C8.37948 26.0916 8.4238 26.1466 8.47867 26.1891C8.53536 26.2351 8.60442 26.267 8.68242 26.2794C8.81005 26.3024 8.93398 26.2723 9.02967 26.205C9.12536 26.1376 9.19623 26.0331 9.21748 25.9073C9.23873 25.7886 9.21392 25.6734 9.15548 25.5796C9.09523 25.4857 9.00311 25.4113 8.89148 25.3811C8.64167 25.3121 8.49636 25.0551 8.56548 24.8053C8.59386 24.7008 8.6523 24.6476 8.67361 24.5289C8.69661 24.4014 8.66648 24.2774 8.59917 24.1817C8.53186 24.086 8.42736 24.0151 8.2998 23.9939C8.1723 23.9708 8.04998 24.0009 7.95436 24.0683C7.85867 24.1356 7.7878 24.2401 7.76474 24.3677C7.75411 24.4315 7.75411 24.474 7.76649 24.5396C7.7913 24.6654 7.76292 24.7911 7.69561 24.8904C7.63005 24.9896 7.5238 25.064 7.39624 25.0888C7.35199 25.0977 7.30767 25.0994 7.26511 25.0959C7.14999 25.0888 7.04011 25.1243 6.9533 25.1916C6.86649 25.2606 6.80267 25.3581 6.78317 25.475C6.76011 25.6026 6.79024 25.7266 6.85761 25.8223C6.92492 25.9179 7.02949 25.9888 7.15705 26.0118C7.23499 26.0242 7.31117 26.0189 7.3803 25.9959C7.44761 25.9728 7.50786 25.9374 7.55742 25.8896C7.66192 25.7708 7.82499 25.7071 7.99149 25.7354C8.1598 25.7656 8.29092 25.8808 8.34936 26.0296ZM7.3023 26.9544C7.2013 26.958 7.09855 26.9527 6.9958 26.9332C6.61486 26.8676 6.29774 26.6515 6.09224 26.3574C5.88668 26.0633 5.7928 25.6931 5.86018 25.3139C5.92218 24.9578 6.11524 24.6584 6.37924 24.4528C6.51568 24.3465 6.6733 24.2651 6.83992 24.2154C6.90374 23.8433 7.11099 23.5191 7.4193 23.303C7.71342 23.0975 8.08367 23.0036 8.46105 23.0709C8.84023 23.1382 9.15736 23.3526 9.36461 23.6467C9.58073 23.9568 9.66223 24.3306 9.59492 24.7026C9.73492 24.8071 9.85536 24.9347 9.94754 25.0818C10.1247 25.367 10.2044 25.7143 10.1407 26.0686C10.0751 26.4478 9.85898 26.7649 9.56486 26.9704C9.27073 27.1759 8.90048 27.2698 8.5213 27.2025C8.41855 27.1848 8.31936 27.1546 8.22542 27.1157L8.1333 27.6348C8.08898 27.8899 7.8463 28.0601 7.59117 28.0157C7.33605 27.9714 7.16599 27.7287 7.21024 27.4736L7.3023 26.9544ZM29.5833 22.1991C29.6116 22.3923 29.6258 22.5907 29.6258 22.7909C29.6258 22.9928 29.6116 23.1913 29.5833 23.3845H30.9014C30.9226 23.1895 30.9333 22.9929 30.9333 22.7909C30.9333 22.5907 30.9226 22.394 30.9014 22.1991H29.5833ZM29.3388 24.3217C29.1244 24.8656 28.802 25.3546 28.3963 25.7621C27.9887 26.1678 27.4998 26.4903 26.9558 26.7046V28.0831C27.8611 27.8226 28.6709 27.3354 29.3193 26.6852C29.9678 26.0368 30.4568 25.2271 30.7172 24.3218L29.3388 24.3217ZM26.0186 26.9509C25.8254 26.9774 25.627 26.9916 25.4251 26.9916C25.2249 26.9916 25.0265 26.9774 24.8333 26.9509V28.2673C25.0282 28.2885 25.2249 28.2991 25.4251 28.2991C25.6253 28.2991 25.8237 28.2885 26.0186 28.2673V26.9509ZM23.8943 26.7046C23.3505 26.4903 22.8615 26.1678 22.4557 25.7621C22.05 25.3546 21.7258 24.8656 21.5131 24.3217H20.133C20.3952 25.2271 20.8824 26.0367 21.5308 26.6851C22.1793 27.3354 22.989 27.8226 23.8943 28.083V26.7046H23.8943ZM21.2669 23.3845C21.2403 23.1913 21.2261 22.9929 21.2261 22.7909C21.2261 22.5907 21.2403 22.3923 21.2669 22.1991H19.9506C19.9293 22.3941 19.9186 22.5907 19.9186 22.7909C19.9186 22.9928 19.9293 23.1895 19.9506 23.3845H21.2669ZM21.5131 21.262C21.7257 20.7163 22.05 20.2273 22.4557 19.8216C22.8614 19.4159 23.3504 19.0916 23.8943 18.879V17.5007C22.989 17.7611 22.1793 18.2483 21.5309 18.8968C20.8825 19.5452 20.3953 20.3549 20.133 21.262H21.5131ZM23.1183 20.4842C22.5036 21.1007 22.1634 21.9263 22.1634 22.791C22.1634 23.6573 22.5036 24.483 23.1183 25.0994C23.7349 25.7143 24.5605 26.0544 25.4251 26.0544C26.2915 26.0544 27.1171 25.7143 27.7319 25.0994C28.3484 24.4829 28.6886 23.6573 28.6886 22.791C28.6886 21.9264 28.3484 21.1007 27.7319 20.4842C27.1171 19.8694 26.2915 19.5293 25.4251 19.5293C24.5605 19.5293 23.7349 19.8694 23.1183 20.4842ZM23.152 22.4596L25.0938 20.5196C25.278 20.3354 25.5739 20.3354 25.7564 20.5196L27.6982 22.4596C27.8806 22.6439 27.8806 22.9398 27.6982 23.124L25.7564 25.064C25.5739 25.2483 25.278 25.2483 25.0938 25.064L23.152 23.124C22.9695 22.9398 22.9695 22.6439 23.152 22.4596ZM25.4251 21.5136L24.1476 22.791L25.4251 24.0701L26.7043 22.791L25.4251 21.5136Z" fill="white"/>
</g>
<defs>
<clipPath id="clip0_509_218">
<rect width="32" height="32" fill="white"/>
</clipPath>
</defs>
</svg>
