<svg width="32" height="32" viewBox="0 0 32 32" fill="none" xmlns="http://www.w3.org/2000/svg">
<g clip-path="url(#clip0_509_230)">
<path d="M28.3122 27.4149C28.0536 27.4149 27.8445 27.2041 27.8445 26.9454C27.8445 26.6867 28.0536 26.4759 28.3122 26.4759H29.6073C26.5972 23.6058 23.5854 20.7356 20.5753 17.8673V30.3789L24.225 26.6194C24.3136 26.5273 24.4411 26.4759 24.5669 26.4759H26.1898C26.4485 26.4759 26.6575 26.6867 26.6575 26.9454C26.6575 27.2041 26.4484 27.4149 26.1898 27.4149H24.7565L20.4655 31.8334C20.3804 31.9344 20.2511 32 20.1059 32C19.8472 32 19.6381 31.7909 19.6381 31.5322V24.4615H1.22331C0.964686 24.4615 0.753811 24.2524 0.753811 23.9938C0.753811 17.4971 0.753811 11.0003 0.753811 4.50362C0.753811 3.166 2.18356 2.00556 4.49562 1.20825C6.65887 0.462375 9.63531 0 12.9164 0C16.1976 0 19.1757 0.462375 21.3372 1.20831C23.6492 2.00556 25.0789 3.166 25.0789 4.50369V8.722H25.5201C25.901 8.722 26.2447 8.87613 26.4945 9.12594C26.7443 9.37575 26.9002 9.72125 26.9002 10.1004V13.2114H27.3201C27.6071 13.2114 27.8693 13.0927 28.0589 12.9031C28.2502 12.7118 28.3672 12.4514 28.3672 12.1626V6.44C27.9242 6.34788 27.5274 6.12819 27.2174 5.81812C26.8028 5.40356 26.5477 4.83131 26.5477 4.20062C26.5477 3.56813 26.8028 2.99587 27.2174 2.58131C27.6319 2.16675 28.2042 1.91163 28.8367 1.91163C29.4674 1.91163 30.0396 2.16675 30.4542 2.58131C30.8687 2.99587 31.1257 3.56813 31.1257 4.20062C31.1257 4.83131 30.8688 5.40362 30.4542 5.81812C30.1459 6.12819 29.7491 6.34788 29.3044 6.44V12.1626C29.3044 12.71 29.0811 13.2061 28.7215 13.5657C28.3619 13.9253 27.8658 14.1486 27.3201 14.1486H26.9002V17.2596C26.9002 17.6388 26.7444 17.9842 26.4946 18.2341C26.2447 18.4821 25.9011 18.638 25.5202 18.638H25.079V20.8686L31.0744 26.584C31.1789 26.669 31.2462 26.8001 31.2462 26.9454C31.2462 27.2041 31.0354 27.4149 30.7767 27.4149H28.3122V27.4149ZM29.7916 3.24394C29.5471 2.99944 29.2087 2.84888 28.8366 2.84888C28.4628 2.84888 28.1244 2.99944 27.8799 3.24394C27.6354 3.48844 27.4848 3.82681 27.4848 4.20069C27.4848 4.57275 27.6354 4.91112 27.8799 5.15562C28.1244 5.40013 28.4628 5.55069 28.8366 5.55069C29.2087 5.55069 29.5471 5.40013 29.7916 5.15562C30.0361 4.91112 30.1866 4.57275 30.1866 4.20069C30.1867 3.82681 30.0361 3.48844 29.7916 3.24394ZM25.0789 9.65919V17.7008H25.5201C25.6423 17.7008 25.7522 17.6512 25.8319 17.5697C25.9117 17.49 25.9631 17.3801 25.9631 17.2596V13.6791V10.1003C25.9631 9.97981 25.9117 9.87 25.8319 9.7885C25.7522 9.70881 25.6424 9.65919 25.5201 9.65919H25.0789ZM19.1013 22.642C18.8426 22.642 18.6318 22.4329 18.6318 22.1742C18.6318 21.9138 18.8426 21.7048 19.1013 21.7048H19.6381V20.8225H1.69112V23.5243H19.6381V22.6421H19.1013V22.642ZM11.9118 22.642C11.6532 22.642 11.4423 22.4329 11.4423 22.1742C11.4423 21.9138 11.6532 21.7048 11.9118 21.7048H13.9227C14.1814 21.7048 14.3904 21.9138 14.3904 22.1742C14.3904 22.4329 14.1813 22.642 13.9227 22.642H11.9118ZM4.72244 22.642C4.46375 22.642 4.25294 22.4329 4.25294 22.1742C4.25294 21.9138 4.46375 21.7048 4.72244 21.7048H6.73331C6.992 21.7048 7.201 21.9138 7.201 22.1742C7.201 22.4329 6.99194 22.642 6.73331 22.642H4.72244ZM11.8552 4.48238C12.1139 4.48238 12.3247 4.69144 12.3247 4.95006C12.3247 5.2105 12.1139 5.41956 11.8552 5.41956H8.41281C8.15412 5.41956 7.94331 5.2105 7.94331 4.95006V3.13056C7.94331 2.87188 8.15412 2.66287 8.41281 2.66287H17.4217C17.6804 2.66287 17.8894 2.87194 17.8894 3.13056V4.95006C17.8894 5.2105 17.6804 5.41956 17.4217 5.41956H13.9794C13.7189 5.41956 13.5099 5.2105 13.5099 4.95006C13.5099 4.69137 13.7189 4.48238 13.9794 4.48238H16.9522V3.60006H8.8805V4.48238H11.8552ZM1.69112 6.5375H24.1417V4.50362C24.1417 3.61244 22.9547 2.75675 21.0342 2.09413C18.9632 1.38013 16.0948 0.937187 12.9164 0.937187C9.73981 0.937187 6.86969 1.38013 4.80044 2.09413C2.87987 2.75675 1.69112 3.61244 1.69112 4.50362V6.5375ZM19.6381 18.1526H17.4218C17.1631 18.1526 16.9523 17.9435 16.9523 17.6831V9.67513C16.9523 9.41644 17.1631 9.20737 17.4218 9.20737H22.79C23.0504 9.20737 23.2595 9.41644 23.2595 9.67513V17.6831C23.2595 17.9436 23.0504 18.1526 22.79 18.1526H22.2301L24.0479 19.8853H24.1418V9.18969V7.47475H1.69112V19.8853H19.6381V18.1526ZM21.2468 17.2154H22.3222V10.1446H17.8895V17.2154H19.6381V16.7742C19.6381 16.6572 19.6806 16.5421 19.7674 16.4517C19.9446 16.2639 20.2405 16.2569 20.4283 16.4358L21.2468 17.2154ZM11.8552 17.2154C12.1139 17.2154 12.3247 17.4244 12.3247 17.6831C12.3247 17.9436 12.1139 18.1526 11.8552 18.1526H10.2324C9.97369 18.1526 9.76287 17.9436 9.76287 17.6831V9.67513C9.76287 9.41644 9.97369 9.20737 10.2324 9.20737H15.6023C15.861 9.20737 16.07 9.41644 16.07 9.67513V17.6831C16.07 17.9436 15.8609 18.1526 15.6023 18.1526H13.9794C13.7189 18.1526 13.5099 17.9436 13.5099 17.6831C13.5099 17.4244 13.7189 17.2154 13.9794 17.2154H15.1327V10.1446H10.7018V17.2154H11.8552ZM3.04287 9.20737H8.41287C8.67156 9.20737 8.88056 9.41644 8.88056 9.67513V17.6831C8.88056 17.9436 8.6715 18.1526 8.41287 18.1526H3.04287C2.78425 18.1526 2.57337 17.9436 2.57337 17.6831V9.67513C2.57337 9.4165 2.78419 9.20737 3.04287 9.20737ZM7.94331 10.1446H3.51237V17.2154H7.94331V10.1446ZM19.298 12.6799C19.0393 12.6799 18.8303 12.4708 18.8303 12.2122C18.8303 11.9535 19.0394 11.7426 19.298 11.7426H20.9137C21.1724 11.7426 21.3832 11.9535 21.3832 12.2122C21.3832 12.2884 21.3637 12.3593 21.3319 12.423L20.0509 15.3356C19.9482 15.573 19.6718 15.6811 19.4344 15.5766C19.1971 15.4721 19.0907 15.1957 19.1952 14.9601L20.1962 12.6799L19.298 12.6799ZM12.1085 12.6799C11.8498 12.6799 11.6407 12.4708 11.6407 12.2122C11.6407 11.9535 11.8498 11.7426 12.1085 11.7426H13.7242C13.9829 11.7426 14.1937 11.9535 14.1937 12.2122C14.1937 12.2884 14.1743 12.3593 14.1424 12.423L12.8614 15.3356C12.7587 15.573 12.4823 15.6811 12.2449 15.5766C12.0092 15.4721 11.9012 15.1957 12.0057 14.9601L13.0067 12.6799L12.1085 12.6799ZM4.91906 12.6799C4.66037 12.6799 4.45137 12.4708 4.45137 12.2122C4.45137 11.9535 4.66044 11.7426 4.91906 11.7426H6.53481C6.7935 11.7426 7.00431 11.9535 7.00431 12.2122C7.00431 12.2884 6.98662 12.3593 6.95294 12.423L5.672 15.3356C5.56925 15.573 5.29287 15.6811 5.05544 15.5766C4.81981 15.4721 4.71175 15.1957 4.81625 14.9601L5.81725 12.6799L4.91906 12.6799Z" fill="white"/>
</g>
<defs>
<clipPath id="clip0_509_230">
<rect width="32" height="32" fill="white"/>
</clipPath>
</defs>
</svg>
