<svg width="32" height="32" viewBox="0 0 32 32" fill="none" xmlns="http://www.w3.org/2000/svg">
<g clip-path="url(#clip0_509_226)">
<path d="M19.9402 22.4613C19.9402 22.2026 20.1493 21.9936 20.4079 21.9936C20.6666 21.9936 20.8774 22.2027 20.8774 22.4613V24.3091L22.8404 22.2859C22.9325 22.192 23.0529 22.1459 23.1752 22.1459V22.1442H25.8682C24.2046 20.5586 22.5409 18.9711 20.8773 17.3854V20.3389C20.8773 20.5976 20.6665 20.8065 20.4078 20.8065C20.1491 20.8065 19.9401 20.5975 19.9401 20.3389V19.0456H16.4907C15.7324 19.0456 15.045 18.7355 14.5454 18.2376C14.0475 17.738 13.7375 17.0506 13.7375 16.2923C13.7375 15.5358 14.0475 14.8466 14.5454 14.3488C15.045 13.851 15.7324 13.5409 16.4907 13.5409H24.3269C25.0834 13.5409 25.7726 13.851 26.2704 14.3488C26.77 14.8466 27.0783 15.5358 27.0783 16.2923C27.0783 17.0506 26.77 17.738 26.2704 18.2376C25.7726 18.7355 25.0834 19.0456 24.3269 19.0456H23.9726L27.3369 22.2505C27.4397 22.3373 27.507 22.4666 27.507 22.6119C27.507 22.8723 27.2962 23.0814 27.0375 23.0814H23.3719L20.7676 25.7638C20.6825 25.8665 20.5531 25.9303 20.4079 25.9303C20.1492 25.9303 19.9402 25.7212 19.9402 25.4626V22.4613ZM19.0225 6.50031C18.9357 6.25581 19.0633 5.98831 19.3078 5.90325C19.5522 5.81638 19.8179 5.94575 19.9048 6.18844L21.1893 9.831L22.4134 6.20437C22.495 5.95987 22.7607 5.827 23.0052 5.91031C23.2497 5.99181 23.3826 6.25575 23.2993 6.502L21.7437 11.1101C21.6641 11.3493 21.4497 11.5052 21.1999 11.507C20.9571 11.5087 20.7339 11.3546 20.6542 11.1243L19.0225 6.50031ZM26.6106 5.88375C26.8693 5.88375 27.0783 6.09456 27.0783 6.35325C27.0783 6.61194 26.8692 6.82094 26.6106 6.82094H25.1188V8.21H26.4653C26.724 8.21 26.9348 8.42081 26.9348 8.6795C26.9348 8.93819 26.724 9.14725 26.4653 9.14725H25.1188V10.5362H26.6106C26.8693 10.5362 27.0783 10.747 27.0783 11.0057C27.0783 11.2644 26.8692 11.4734 26.6106 11.4734H24.6493C24.3906 11.4734 24.1816 11.2643 24.1816 11.0057V6.35331C24.1816 6.09462 24.3907 5.88381 24.6493 5.88381L26.6106 5.88375ZM17.2012 6.34438C17.2012 6.08569 17.412 5.87488 17.6707 5.87488C17.9294 5.87488 18.1402 6.08569 18.1402 6.34438V11.0393C18.1402 11.298 17.9294 11.5088 17.6707 11.5088C17.412 11.5088 17.2012 11.298 17.2012 11.0393V6.34438ZM13.7376 6.34788C13.7376 6.08919 13.9484 5.88019 14.2071 5.88019C14.4658 5.88019 14.6748 6.08925 14.6748 6.34788V10.5769L15.8511 10.5733C16.108 10.5733 16.3171 10.7824 16.3171 11.0393C16.3171 11.2979 16.108 11.5069 15.8511 11.5069H14.2478C13.9731 11.5069 13.7376 11.3156 13.7376 11.0393V6.34788ZM19.9402 18.1082V16.3277C19.9402 16.1913 19.9703 16.0744 20.0695 15.9699C20.2467 15.7838 20.5425 15.7767 20.7303 15.9539L22.9892 18.1082H24.3268C24.8247 18.1082 25.2782 17.9028 25.6077 17.5732C25.9373 17.2455 26.141 16.7919 26.141 16.2923C26.141 15.7945 25.9373 15.3409 25.6077 15.0114C25.2782 14.6819 24.8247 14.4782 24.3268 14.4782H16.4907C15.9911 14.4782 15.5376 14.6819 15.2081 15.0114C14.8803 15.3409 14.6748 15.7945 14.6748 16.2923C14.6748 16.7919 14.8803 17.2455 15.2081 17.5732C15.5375 17.9028 15.9911 18.1082 16.4907 18.1082H19.9402ZM4.90575 6.58887C4.64706 6.58887 4.43625 6.37981 4.43625 6.12119C4.43625 5.8625 4.64706 5.65169 4.90575 5.65169H5.48863C5.74731 5.65169 5.95631 5.8625 5.95631 6.12119C5.95631 6.37988 5.74725 6.58887 5.48863 6.58887H4.90575ZM4.90575 30.2779C4.64706 30.2779 4.43625 30.0671 4.43625 29.8084C4.43625 29.5497 4.64706 29.3407 4.90575 29.3407H5.48863C5.74731 29.3407 5.95631 29.5498 5.95631 29.8084C5.95631 30.0671 5.74725 30.2779 5.48863 30.2779H4.90575ZM5.01919 8.42075C5.01919 8.16037 5.22825 7.95119 5.48869 7.95119C5.82531 7.95119 6.13181 7.81475 6.35325 7.59331C6.57469 7.37181 6.71113 7.06538 6.71113 6.727C6.71113 6.46831 6.922 6.25931 7.18063 6.25931H11.5071V4.86681H3.62663V7.356C3.62663 7.61462 3.41756 7.82363 3.15894 7.82363C2.90031 7.82363 2.68944 7.61456 2.68944 7.356V4.39731C2.68944 4.13863 2.90025 3.92963 3.15894 3.92963H11.5071V1.986C11.5071 0.892937 12.3999 0 13.4913 0H27.3246C27.8702 0 28.368 0.22325 28.7277 0.582875C29.0873 0.9425 29.3106 1.43856 29.3106 1.986V4.41325C29.3106 4.67194 29.0997 4.88094 28.841 4.88094C28.5824 4.88094 28.3733 4.67188 28.3733 4.41325V3.06144H12.4443V23.9478C12.4443 24.2064 12.2334 24.4172 11.9748 24.4172C11.7161 24.4172 11.5071 24.2064 11.5071 23.9478V21.2052C10.8693 21.4674 10.1748 21.5967 9.48738 21.5967C8.19581 21.5967 6.86181 21.1378 5.95644 20.1917V27.0924C6.36569 27.1828 6.73069 27.3883 7.01594 27.6735C7.30113 27.9606 7.50844 28.3255 7.59881 28.7329H11.5071V26.0719C11.5071 25.8132 11.7162 25.6024 11.9748 25.6024C12.2335 25.6024 12.4443 25.8132 12.4443 26.0719V27.4237H28.3734V6.53569C28.3734 6.277 28.5825 6.068 28.8411 6.068C29.0998 6.068 29.3107 6.27706 29.3107 6.53569V30.0158C29.3107 30.5614 29.0874 31.0575 28.7278 31.4171C28.3681 31.7768 27.8703 32 27.3247 32H3.15894C2.90025 32 2.68944 31.7909 2.68944 31.5323V9.47856C2.68944 9.21988 2.90025 9.01081 3.15894 9.01081C3.41763 9.01081 3.62663 9.21994 3.62663 9.47856V31.0628H11.8064C11.6168 30.7581 11.507 30.3985 11.507 30.0158V29.6704H7.18056C6.92194 29.6704 6.71106 29.4613 6.71106 29.2026C6.71106 28.8642 6.57463 28.5578 6.35319 28.3363C6.13175 28.1166 5.82525 27.9784 5.48863 27.9784C5.22819 27.9784 5.01913 27.7693 5.01913 27.5107C5.01919 21.1467 5.01919 14.7829 5.01919 8.42075ZM5.95638 15.7378C6.86175 14.7917 8.19581 14.3329 9.48731 14.3329C10.1748 14.3329 10.8692 14.4622 11.507 14.7244V7.19656H7.59875C7.50838 7.60581 7.30106 7.97081 7.01588 8.25606C6.73069 8.54131 6.36563 8.74687 5.95638 8.83719V15.7378ZM6.9485 16.0939C6.3355 16.5794 5.95813 17.2402 5.95638 17.963C5.95638 18.7213 6.36563 19.3751 6.9485 19.8357C7.59163 20.3441 8.48981 20.6596 9.48731 20.6596C10.1871 20.6596 10.8869 20.5054 11.507 20.1741V15.7555C10.8869 15.4242 10.1871 15.2701 9.48731 15.2701C8.48988 15.2701 7.59163 15.5854 6.9485 16.0939ZM15.5251 30.1805C15.2647 30.1805 15.0556 29.9714 15.0556 29.711C15.0556 29.4523 15.2647 29.2432 15.5251 29.2432H17.8301C18.0888 29.2432 18.2978 29.4524 18.2978 29.711C18.2978 29.9714 18.0887 30.1805 17.8301 30.1805H15.5251ZM22.9874 30.1805C22.727 30.1805 22.5179 29.9714 22.5179 29.711C22.5179 29.4523 22.727 29.2432 22.9874 29.2432H25.2924C25.5511 29.2432 25.7601 29.4524 25.7601 29.711C25.7601 29.9714 25.5511 30.1805 25.2924 30.1805H22.9874ZM27.3246 0.93725H13.4913C12.795 0.93725 12.4443 1.48294 12.4443 2.12419H28.3734C28.3734 1.77163 28.3291 1.51119 28.0651 1.24544C27.8737 1.05594 27.6115 0.93725 27.3246 0.93725ZM12.4443 28.3609V30.0158C12.4443 30.3028 12.5612 30.5649 12.7526 30.7545C12.9421 30.9458 13.2043 31.0627 13.4913 31.0627H27.3246C27.6116 31.0627 27.8737 30.9459 28.0651 30.7545C28.2547 30.5649 28.3734 30.3028 28.3734 30.0158V28.3609H12.4443Z" fill="white"/>
</g>
<defs>
<clipPath id="clip0_509_226">
<rect width="32" height="32" fill="white"/>
</clipPath>
</defs>
</svg>
