<svg width="32" height="32" viewBox="0 0 32 32" fill="none" xmlns="http://www.w3.org/2000/svg">
<g clip-path="url(#clip0_509_222)">
<path d="M22.5392 27.1553C22.3603 27.3413 22.0644 27.3448 21.8784 27.1642C21.6942 26.9853 21.6889 26.6893 21.8696 26.5034L22.6314 25.7185C22.7236 25.6246 22.8441 25.5786 22.9663 25.5786V25.5768H27.2874L19.5026 18.157V28.9412L20.3903 28.027C20.571 27.8428 20.8669 27.8374 21.0511 28.0181C21.2371 28.1989 21.2406 28.4948 21.06 28.6789L19.3929 30.3957C19.3078 30.4985 19.1784 30.564 19.0332 30.564C18.7745 30.564 18.5655 30.3532 18.5655 30.0945V21.6791C12.533 21.6791 6.50044 21.6791 0.469625 21.6791C0.210938 21.6791 6.25e-05 21.47 6.25e-05 21.2096V19.3901C6.25e-05 19.1314 0.210938 18.9224 0.469625 18.9224C0.72825 18.9224 0.937312 19.1314 0.937312 19.3901V20.7419H7.76531V2.37313H0.93725V17.2676C0.93725 17.5263 0.728125 17.7354 0.469563 17.7354C0.210875 17.7354 0 17.5263 0 17.2676V1.90544C0 1.64676 0.210875 1.43594 0.469563 1.43594H31.5323C31.791 1.43594 32 1.64676 32 1.90544V3.72501C32 3.98369 31.7909 4.19451 31.5323 4.19451C31.2736 4.19451 31.0628 3.98369 31.0628 3.72501V2.37313H24.2348V20.7419H31.0628V5.84913C31.0628 5.58876 31.2736 5.37963 31.5323 5.37963C31.791 5.37963 32 5.58876 32 5.84913V21.2097C32 21.4701 31.7909 21.6792 31.5323 21.6792H24.5537L28.7543 25.6831C28.8589 25.7699 28.9244 25.8992 28.9244 26.0446C28.9244 26.3049 28.7153 26.5141 28.4567 26.5141H23.1629L22.5392 27.1553ZM29.2432 10.9818C29.2432 10.7231 29.4524 10.5123 29.7109 10.5123C29.9714 10.5123 30.1805 10.7231 30.1805 10.9818V12.1333C30.1805 12.3938 29.9714 12.6028 29.7109 12.6028C29.4523 12.6028 29.2432 12.3938 29.2432 12.1333V10.9818ZM1.81956 10.9818C1.81956 10.7231 2.03038 10.5123 2.28906 10.5123C2.54775 10.5123 2.75856 10.7231 2.75856 10.9818V12.1333C2.75856 12.3938 2.54775 12.6028 2.28906 12.6028C2.03038 12.6028 1.81956 12.3938 1.81956 12.1333V10.9818ZM15.5589 17.0143C15.5589 17.2729 15.3497 17.4819 15.0912 17.4819C14.8307 17.4819 14.6216 17.2729 14.6216 17.0143V15.4091H11.2006V20.7418H14.6216V19.1367C14.6216 18.878 14.8307 18.6689 15.0912 18.6689C15.3498 18.6689 15.5589 18.8781 15.5589 19.1367V20.7418H16.4411V15.4091H15.5589V17.0143ZM21.269 14.4719C21.3895 14.4719 21.5011 14.4224 21.5808 14.3408C21.6605 14.2611 21.7101 14.1513 21.7101 14.0308C21.7101 13.9086 21.6605 13.7987 21.5808 13.719C21.5011 13.6393 21.3894 13.5896 21.269 13.5896C17.7576 13.5896 14.2443 13.5896 10.7311 13.5896C10.6106 13.5896 10.5007 13.6393 10.4193 13.719C10.3396 13.7987 10.29 13.9086 10.29 14.0308C10.29 14.1513 10.3396 14.2611 10.4193 14.3408C10.5008 14.4224 10.6107 14.4719 10.7311 14.4719H21.269ZM17.3784 15.4092V20.7419H18.5654V17.0638C18.5654 16.9487 18.6098 16.8318 18.6947 16.7414C18.8737 16.5536 19.1696 16.5465 19.3556 16.7254L20.8013 18.102V15.4091L17.3784 15.4092ZM17.4085 10.7726C17.1498 10.7726 16.9142 10.8771 16.7441 11.0473C16.574 11.2174 16.4694 11.4529 16.4694 11.7116V12.6506H17.4084C17.6671 12.6506 17.9028 12.5461 18.0728 12.376C18.2429 12.2058 18.3474 11.9721 18.3474 11.7116C18.3474 11.4529 18.2429 11.2173 18.0728 11.0473C17.9028 10.8771 17.6671 10.7726 17.4085 10.7726ZM17.4085 9.83551C17.9258 9.83551 18.3953 10.0463 18.7355 10.3847C19.0756 10.7248 19.2847 11.1943 19.2847 11.7116C19.2847 12.0535 19.1944 12.376 19.0331 12.6505H21.269C21.6499 12.6505 21.9936 12.8065 22.2434 13.0563C22.4932 13.3061 22.6491 13.6498 22.6491 14.0307C22.6491 14.4098 22.4932 14.7553 22.2434 15.0052C22.1017 15.1451 21.9299 15.2568 21.7385 15.3259V18.995L23.2976 20.4814V2.37313H8.70425V20.7419H10.2634V15.3259C10.0703 15.2569 9.89837 15.1451 9.75669 15.0053C9.50688 14.7554 9.35275 14.4099 9.35275 14.0308C9.35275 13.6499 9.50688 13.3061 9.75669 13.0563C10.0065 12.8066 10.3519 12.6506 10.7311 12.6506H12.9669C12.8075 12.376 12.7154 12.0535 12.7154 11.7116C12.7154 11.1943 12.9262 10.7248 13.2646 10.3848C13.6047 10.0464 14.0743 9.83557 14.5916 9.83557C15.1337 9.83557 15.644 10.0658 16.0001 10.4716C16.3579 10.0658 16.8681 9.83551 17.4085 9.83551ZM15.2559 11.0473C15.0858 10.8771 14.852 10.7726 14.5916 10.7726C14.3329 10.7726 14.0972 10.8771 13.9289 11.0473C13.7588 11.2174 13.6526 11.4529 13.6526 11.7116C13.6526 11.9721 13.7588 12.2059 13.9289 12.3761C14.0972 12.5461 14.3329 12.6506 14.5916 12.6506H15.5323V11.7117C15.5323 11.4529 15.426 11.2173 15.2559 11.0473ZM19.4619 5.76769C19.2794 5.58519 19.2794 5.28757 19.4619 5.10507C19.6461 4.92257 19.942 4.92257 20.1245 5.10507L20.516 5.49482C20.6985 5.67901 20.6985 5.97494 20.516 6.15913C20.3336 6.34163 20.0359 6.34163 19.8534 6.15913L19.4619 5.76769ZM21.3133 7.61901C21.1308 7.43482 21.1308 7.13888 21.3133 6.95469C21.4958 6.77219 21.7934 6.77219 21.9759 6.95469L22.3674 7.34619C22.5499 7.52869 22.5499 7.82632 22.3674 8.00876C22.1833 8.19132 21.8873 8.19132 21.7031 8.00876L21.3133 7.61901ZM20.1245 8.00882C19.942 8.19138 19.6461 8.19138 19.4619 8.00882C19.2794 7.82632 19.2794 7.52869 19.4619 7.34626L19.8534 6.95476C20.0359 6.77226 20.3336 6.77226 20.516 6.95476C20.6985 7.13894 20.6985 7.43488 20.516 7.61907L20.1245 8.00882ZM21.9759 6.15919C21.7934 6.34169 21.4957 6.34169 21.3132 6.15919C21.1307 5.97501 21.1307 5.67907 21.3132 5.49488L21.7029 5.10513C21.8872 4.92263 22.1831 4.92263 22.3673 5.10513C22.5498 5.28763 22.5498 5.58526 22.3673 5.76776L21.9759 6.15919ZM14.5507 4.00669C14.3666 3.82238 14.3666 3.52644 14.5507 3.34413C14.7332 3.15982 15.0292 3.15982 15.2134 3.34413L15.6031 3.73376C15.7874 3.91807 15.7874 4.21401 15.6031 4.39638C15.4207 4.58069 15.123 4.58069 14.9405 4.39638L14.5507 4.00669ZM16.4004 5.85632C16.2179 5.67382 16.2179 5.37794 16.4004 5.19369C16.5829 5.01119 16.8806 5.01119 17.063 5.19369L17.4546 5.58519C17.6371 5.76769 17.6371 6.06532 17.4546 6.24782C17.2721 6.43032 16.9744 6.43032 16.7919 6.24782L16.4004 5.85632ZM15.2134 6.24782C15.0292 6.43032 14.7332 6.43032 14.5507 6.24782C14.3666 6.06532 14.3666 5.76769 14.5507 5.58519L14.9406 5.19369C15.1231 5.01119 15.4207 5.01119 15.6032 5.19369C15.7874 5.37788 15.7874 5.67382 15.6032 5.85632L15.2134 6.24782ZM17.063 4.39638C16.8806 4.58069 16.5829 4.58069 16.4004 4.39638C16.2179 4.21401 16.2179 3.91813 16.4004 3.73376L16.7919 3.34413C16.9744 3.15982 17.2721 3.15982 17.4546 3.34413C17.6371 3.52651 17.6371 3.82238 17.4546 4.00669L17.063 4.39638ZM9.75663 7.46494C9.57413 7.28063 9.57413 6.98482 9.75663 6.80232C9.94088 6.61801 10.2367 6.61801 10.4192 6.80232L10.8108 7.19207C10.9933 7.37444 10.9933 7.67219 10.8108 7.85469C10.6283 8.03888 10.3307 8.03888 10.1482 7.85469L9.75663 7.46494ZM11.6081 9.31463C11.4256 9.13213 11.4256 8.83626 11.6081 8.65201C11.7906 8.46951 12.0882 8.46951 12.2707 8.65201L12.6622 9.04351C12.8447 9.22601 12.8447 9.52363 12.6622 9.70613C12.478 9.88863 12.1821 9.88863 11.9979 9.70613L11.6081 9.31463ZM10.4192 9.70613C10.2367 9.88863 9.94094 9.88863 9.75663 9.70613C9.57413 9.52363 9.57413 9.22601 9.75663 9.04351L10.1482 8.65201C10.3307 8.46951 10.6283 8.46951 10.8108 8.65201C10.9933 8.83451 10.9933 9.13213 10.8108 9.31463L10.4192 9.70613ZM12.2707 7.85476C12.0882 8.03894 11.7906 8.03894 11.6081 7.85476C11.4256 7.67226 11.4256 7.37451 11.6081 7.19213L11.9978 6.80238C12.1821 6.61807 12.4779 6.61807 12.6622 6.80238C12.8447 6.98488 12.8447 7.28063 12.6622 7.46501L12.2707 7.85476Z" fill="white"/>
</g>
<defs>
<clipPath id="clip0_509_222">
<rect width="32" height="32" fill="white"/>
</clipPath>
</defs>
</svg>
