<svg width="32" height="32" viewBox="0 0 32 32" fill="none" xmlns="http://www.w3.org/2000/svg">
<g clip-path="url(#clip0_509_234)">
<path d="M19.6801 23.0456C19.6801 23.3043 19.4693 23.5151 19.2106 23.5151C18.9519 23.5151 18.7429 23.3043 18.7429 23.0456V18.3968C18.7429 18.1382 18.952 17.9292 19.2106 17.9292C19.3842 17.9292 19.5366 18.0231 19.6181 18.163L21.9956 21.6071L21.9637 18.3916C21.962 18.1347 22.1693 17.9239 22.428 17.9221C22.6848 17.9203 22.8956 18.1276 22.8975 18.3845L22.9417 22.8437C22.9417 22.973 22.917 23.1165 22.8478 23.2246C22.7876 23.3185 22.7026 23.3876 22.598 23.4265C22.4775 23.4726 22.3535 23.4744 22.2295 23.4265C22.132 23.3875 22.0417 23.3185 21.9691 23.214L19.6801 19.8992V23.0456ZM7.61342 13.0783L5.8453 4.00924C5.32443 3.98618 4.85674 3.76649 4.51306 3.42281C4.14987 3.05962 3.92487 2.55824 3.92487 2.0055C3.92487 1.45093 4.14987 0.949561 4.51306 0.588186C4.87618 0.225 5.37755 0 5.9303 0C6.48486 0 6.98624 0.225 7.34767 0.588186C7.71086 0.949623 7.93586 1.451 7.93586 2.0055C7.93586 2.312 7.8668 2.60256 7.74449 2.86299L9.37436 4.17224C9.57455 4.33349 9.60648 4.62755 9.44523 4.82955C9.28405 5.02974 8.98998 5.06168 8.78792 4.90043L7.15811 3.59112C7.03586 3.68499 6.90474 3.76474 6.76305 3.8303L8.46742 12.5681H23.5335L24.3025 8.62086C24.3521 8.36748 24.5965 8.20098 24.8499 8.25061C25.105 8.29842 25.2716 8.54292 25.222 8.79804L24.3875 13.0783V16.7244C24.3875 16.9831 24.1784 17.1921 23.9198 17.1921H17.0617C16.803 17.1921 16.5939 16.983 16.5939 16.7244C16.5939 16.4657 16.803 16.2549 17.0617 16.2549H23.4502V15.3496H23.1278C22.8673 15.3496 22.6583 15.1388 22.6583 14.8801C22.6583 14.6214 22.8673 14.4124 23.1278 14.4124H23.4502V13.5053H8.55061V14.4124H8.87305C9.13173 14.4124 9.34255 14.6215 9.34255 14.8801C9.34255 15.1388 9.13173 15.3496 8.87305 15.3496H8.55061V16.2549H14.9392C15.1978 16.2549 15.4068 16.4657 15.4068 16.7244C15.4068 16.9831 15.1978 17.1921 14.9392 17.1921H8.08111C7.82242 17.1921 7.61342 16.983 7.61342 16.7244C7.61342 15.509 7.61342 14.2937 7.61342 13.0783ZM20.1177 15.3496C19.859 15.3496 19.65 15.1388 19.65 14.8801C19.65 14.6214 19.8591 14.4124 20.1177 14.4124H20.9096C21.1683 14.4124 21.3791 14.6215 21.3791 14.8801C21.3791 15.1388 21.1683 15.3496 20.9096 15.3496H20.1177ZM17.1094 15.3496C16.8507 15.3496 16.6399 15.1388 16.6399 14.8801C16.6399 14.6214 16.8507 14.4124 17.1094 14.4124H17.9013C18.16 14.4124 18.369 14.6215 18.369 14.8801C18.369 15.1388 18.16 15.3496 17.9013 15.3496H17.1094ZM14.0994 15.3496C13.8407 15.3496 13.6317 15.1388 13.6317 14.8801C13.6317 14.6214 13.8408 14.4124 14.0994 14.4124H14.8913C15.15 14.4124 15.3608 14.6215 15.3608 14.8801C15.3608 15.1388 15.15 15.3496 14.8913 15.3496H14.0994ZM11.0911 15.3496C10.8324 15.3496 10.6216 15.1388 10.6216 14.8801C10.6216 14.6214 10.8324 14.4124 11.0911 14.4124H11.883C12.1417 14.4124 12.3507 14.6215 12.3507 14.8801C12.3507 15.1388 12.1417 15.3496 11.883 15.3496H11.0911ZM23.3208 8.49861C23.413 8.84236 23.374 9.22148 23.1826 9.55273L22.5059 10.7255C22.3482 11.0462 21.985 11.3084 21.6449 11.4005C21.2763 11.4997 20.9026 11.4413 20.5961 11.2659C20.286 11.0887 20.0433 10.7911 19.9441 10.4173C19.8502 10.0647 19.8998 9.68029 20.0823 9.36317L20.759 8.19211C20.9167 7.86786 21.2763 7.60748 21.62 7.51536C21.9903 7.41611 22.3641 7.47636 22.6706 7.6518C22.9807 7.83067 23.2216 8.12655 23.3208 8.49861ZM22.2047 8.46317C22.0985 8.40292 21.9744 8.39055 21.861 8.42067C21.7494 8.4508 21.6485 8.52342 21.5846 8.63148L20.8919 9.83267L20.8813 9.84861C20.8281 9.95135 20.8193 10.0683 20.8494 10.1764C20.8795 10.2897 20.9521 10.3907 21.0585 10.4527L21.0744 10.4616C21.179 10.5165 21.2959 10.5254 21.4021 10.4953C21.5297 10.4616 21.62 10.389 21.6838 10.2791L22.373 9.08504C22.435 8.97698 22.4456 8.85298 22.4155 8.73954C22.3855 8.62792 22.3128 8.52698 22.2065 8.46317H22.2047ZM10.3807 7.51536C10.7368 7.61098 11.0398 7.84311 11.224 8.16198L11.9185 9.36317C12.1009 9.68029 12.1505 10.0647 12.0567 10.4173C11.9574 10.7875 11.72 11.0817 11.4135 11.2606C11.1053 11.4395 10.7279 11.4998 10.3559 11.4005C10.0157 11.3084 9.65254 11.0462 9.49486 10.7255L8.81811 9.55273C8.6268 9.22142 8.58773 8.84229 8.67992 8.49861C8.78086 8.12305 9.02717 7.82361 9.34255 7.64648C9.64723 7.47636 10.0157 7.41792 10.3807 7.51536ZM10.138 8.42067C10.0317 8.3923 9.91479 8.40117 9.81023 8.4543L9.79429 8.46317C9.68623 8.52698 9.61354 8.62792 9.58348 8.73954C9.55336 8.85298 9.56573 8.97698 9.62773 9.08504L10.3187 10.2827C10.3807 10.3907 10.4746 10.4634 10.5969 10.4953C10.7049 10.5254 10.8219 10.5165 10.9246 10.4616L10.9405 10.4527C11.0487 10.3907 11.1213 10.2898 11.1514 10.1764C11.1815 10.0683 11.1709 9.95135 11.1177 9.84861L11.1089 9.83267L10.4232 8.64386C10.3577 8.53048 10.2709 8.45611 10.138 8.42067ZM16.0003 7.27974C16.383 7.27974 16.7303 7.43742 16.9818 7.68898C17.2352 7.94055 17.3911 8.2878 17.3911 8.67048V10.0577C17.3911 10.4404 17.2352 10.7894 16.9818 11.0409C16.7303 11.2925 16.383 11.4484 16.0003 11.4484C15.6177 11.4484 15.2687 11.2925 15.0171 11.0409C14.7655 10.7894 14.6096 10.4404 14.6096 10.0577V8.67048C14.6096 8.2878 14.7655 7.94055 15.0171 7.68898C15.2687 7.43736 15.6177 7.27974 16.0003 7.27974ZM16.3193 8.35161C16.2378 8.27011 16.1244 8.21873 16.0003 8.21873C15.8764 8.21873 15.763 8.27011 15.6797 8.35161C15.5982 8.43311 15.5468 8.54648 15.5468 8.67048V10.0577C15.5468 10.1817 15.5982 10.2951 15.6797 10.3784C15.763 10.4599 15.8763 10.5112 16.0003 10.5112C16.1243 10.5112 16.2378 10.4599 16.3193 10.3784C16.4026 10.2951 16.4539 10.1817 16.4539 10.0577V8.67048C16.4539 8.54648 16.4026 8.43305 16.3193 8.35161ZM26.0704 0C26.6232 0 27.1246 0.225 27.4878 0.588186C27.8509 0.949623 28.0742 1.451 28.0742 2.0055C28.0742 2.55824 27.8509 3.05962 27.4878 3.42281C27.1441 3.76649 26.6746 3.98618 26.1555 4.00924L25.6293 6.71274C25.5797 6.96611 25.3352 7.13261 25.0819 7.0848C24.8268 7.03699 24.6602 6.79074 24.7098 6.53736L25.2378 3.8303C25.096 3.76474 24.9631 3.68506 24.8427 3.59112L19.6128 7.79173C19.3931 7.97423 19.0618 7.92286 18.913 7.67655L16.617 3.91355C16.4221 3.9773 16.2148 4.01099 16.0004 4.01099C15.7843 4.01099 15.5788 3.9773 15.3839 3.91355L13.0879 7.67655C12.9409 7.91748 12.6166 7.97598 12.3952 7.7988L10.4429 6.22911C10.2427 6.06786 10.2107 5.7738 10.3719 5.5718C10.5332 5.37161 10.8272 5.33974 11.0292 5.50093L12.567 6.7358L14.5849 3.42637C14.2075 3.05256 13.995 2.53699 13.995 2.0055C13.995 1.45093 14.22 0.949561 14.5832 0.588186C14.9445 0.225 15.4458 0 16.0003 0C16.5532 0 17.0545 0.225 17.4177 0.588186C17.7808 0.949623 18.0059 1.451 18.0059 2.0055C18.0059 2.53699 17.7933 3.05256 17.4142 3.42637L19.4338 6.7358L24.2562 2.86299C24.134 2.60256 24.0649 2.312 24.0649 2.0055C24.0649 1.45093 24.2899 0.949561 24.6513 0.588186C25.0146 0.225 25.5159 0 26.0704 0ZM26.8251 1.25081C26.632 1.05769 26.3645 0.937248 26.0704 0.937248C25.7746 0.937248 25.507 1.05769 25.3139 1.25081C25.1208 1.44393 25.0021 1.70968 25.0021 2.00556C25.0021 2.29968 25.1208 2.56718 25.3139 2.76031C25.507 2.95343 25.7745 3.07387 26.0704 3.07387C26.3645 3.07387 26.632 2.95343 26.8251 2.76031C27.0183 2.56718 27.1369 2.29968 27.1369 2.00556C27.137 1.70962 27.0183 1.44393 26.8251 1.25081ZM16.7551 1.25081C16.562 1.05769 16.2945 0.937248 16.0003 0.937248C15.7045 0.937248 15.4388 1.05769 15.2457 1.25081C15.0525 1.44393 14.932 1.70968 14.932 2.00556C14.932 2.29968 15.0525 2.56718 15.2457 2.76031C15.4388 2.95343 15.7045 3.07387 16.0003 3.07387C16.2945 3.07387 16.562 2.95343 16.7551 2.76031C16.9482 2.56718 17.0687 2.29968 17.0687 2.00556C17.0687 1.70962 16.9482 1.44393 16.7551 1.25081ZM6.68505 1.25081C6.49193 1.05769 6.22618 0.937248 5.9303 0.937248C5.63624 0.937248 5.36874 1.05769 5.17562 1.25081C4.98249 1.44393 4.8638 1.70968 4.8638 2.00556C4.8638 2.29968 4.98249 2.56718 5.17562 2.76031C5.36874 2.95343 5.63624 3.07387 5.9303 3.07387C6.22618 3.07387 6.49193 2.95343 6.68505 2.76031C6.87818 2.56718 6.99867 2.29968 6.99867 2.00556C6.99867 1.70962 6.87818 1.44393 6.68505 1.25081ZM28.8325 22.5017L28.4693 23.0208C28.4055 23.1112 28.3188 23.1715 28.2213 23.2016L27.6171 23.3858L27.9981 23.8925C28.0707 23.9882 28.1008 24.1034 28.0902 24.2132L28.0813 24.8156L28.6801 24.6101C28.7829 24.5746 28.8892 24.5764 28.9849 24.6101C29.1833 24.681 29.3853 24.7483 29.5854 24.8156L29.5748 24.1831C29.573 24.0538 29.6173 23.9598 29.6899 23.8625L30.0496 23.3859L29.4438 23.2016C29.3374 23.1697 29.2506 23.1024 29.1939 23.0174L28.8325 22.5017ZM27.7961 22.3547L28.4444 21.4281C28.4763 21.3821 28.5171 21.3396 28.5649 21.3059C28.7776 21.1588 29.0681 21.2103 29.2151 21.4211L29.8706 22.3548L30.9283 22.679C30.9903 22.6932 31.0523 22.7198 31.1054 22.7623C31.3127 22.9182 31.3535 23.2105 31.1976 23.4178L30.5103 24.3284L30.5296 25.4303C30.5367 25.4959 30.5296 25.5632 30.5067 25.6288C30.4234 25.8733 30.1559 26.0026 29.9114 25.9193L28.8325 25.549L27.7801 25.9104C27.7216 25.9299 27.6596 25.9441 27.5941 25.9441C27.3372 25.9388 27.1317 25.7262 27.1352 25.4693L27.1546 24.3283L26.4849 23.4407C26.4459 23.3893 26.4141 23.3344 26.3946 23.2706C26.3202 23.0244 26.4584 22.764 26.7064 22.6878L27.7961 22.3547ZM3.55449 21.4281L4.20468 22.3547L5.2943 22.6878C5.61855 22.787 5.72124 23.1661 5.52462 23.4283L4.84612 24.3283L4.86562 25.4693C4.86918 25.7261 4.66368 25.9388 4.40499 25.9441C4.34831 25.9441 4.28637 25.9334 4.23493 25.9158L3.16843 25.549L2.08943 25.9193C1.84325 26.0026 1.5775 25.8733 1.49419 25.6288C1.47119 25.5632 1.46406 25.4959 1.47119 25.4303L1.48887 24.3284L0.80325 23.4178C0.596 23.1432 0.74475 22.7534 1.07256 22.679L2.13025 22.3548L2.78575 21.4211C2.9735 21.15 3.37387 21.1588 3.55449 21.4281ZM3.53149 23.0208L3.16837 22.5017L2.80693 23.0173C2.74843 23.1023 2.66343 23.1696 2.55537 23.2015L1.95125 23.3858L2.32331 23.8818C2.38887 23.9669 2.42781 24.0714 2.426 24.183L2.41537 24.8155C2.61556 24.7482 2.81575 24.6809 3.01593 24.61C3.10987 24.5763 3.21612 24.5746 3.31893 24.61L3.91949 24.8155L3.90887 24.2131C3.89999 24.1033 3.93012 23.9881 4.00274 23.8925L4.38368 23.3858L3.77956 23.2015C3.68206 23.1715 3.59349 23.1112 3.53149 23.0208ZM23.4643 25.347L22.8266 26.2559C22.7646 26.3444 22.676 26.4064 22.5803 26.4348L21.5209 26.7591L22.187 27.6467C22.2596 27.7406 22.2898 27.8558 22.2809 27.9674L22.2615 29.0445L23.3121 28.6831C23.4149 28.6476 23.5211 28.6512 23.6168 28.6831C23.9641 28.8071 24.3166 28.924 24.6656 29.0445L24.6479 27.9354C24.6443 27.8096 24.6886 27.7158 24.7595 27.6201L25.408 26.7591L24.3485 26.4348C24.2422 26.4029 24.1554 26.3356 24.097 26.2506L23.4643 25.347ZM22.1551 25.5879L23.0763 24.2716C23.1083 24.2256 23.1472 24.1848 23.1968 24.1494C23.4076 24.0023 23.7 24.0538 23.847 24.2646L24.7736 25.588L26.2866 26.0522C26.3504 26.0664 26.4106 26.0929 26.4655 26.1354C26.671 26.2896 26.7118 26.5837 26.5558 26.7909L25.5832 28.0824L25.6116 29.6593C25.6169 29.7231 25.6098 29.7904 25.5868 29.8559C25.5035 30.1021 25.2378 30.2314 24.9933 30.1482L23.4643 29.622L21.9585 30.1393C21.6449 30.2474 21.3118 30.0454 21.3171 29.6982L21.3436 28.0824L20.387 26.8104C20.3497 26.7608 20.3161 26.7059 20.2983 26.6438C20.224 26.3976 20.3621 26.1353 20.6101 26.0609L22.1551 25.5879ZM8.92442 24.2716L9.84567 25.5879L11.3905 26.0609C11.7236 26.1619 11.8157 26.5411 11.6137 26.8104L10.6553 28.0824L10.6836 29.6982C10.6889 30.0561 10.3488 30.2456 10.0316 30.1358L8.53636 29.622L7.00743 30.1482C6.76293 30.2314 6.49718 30.1021 6.41218 29.8559C6.39086 29.7903 6.3838 29.723 6.38911 29.6593L6.41749 28.0824L5.44312 26.7909C5.28724 26.5836 5.32974 26.2895 5.53524 26.1354C5.59018 26.0929 5.65043 26.0663 5.71243 26.0521L7.22717 25.5879L8.15374 24.2645C8.30074 24.0537 8.59311 24.0023 8.80392 24.1493C8.8518 24.1848 8.89255 24.2255 8.92442 24.2716ZM9.17417 26.2559L8.53642 25.347L7.90217 26.2506C7.84549 26.3356 7.75867 26.4029 7.65236 26.4348L6.59293 26.7591L7.23249 27.6077C7.30686 27.7087 7.35474 27.799 7.35299 27.9354L7.33349 29.0445C7.68424 28.924 8.0368 28.8071 8.38405 28.6831C8.47973 28.6512 8.58605 28.6476 8.6888 28.6831L9.73761 29.0445L9.71986 27.9674C9.71105 27.8558 9.74117 27.7406 9.81204 27.6467L10.48 26.7591L9.42055 26.4348C9.32305 26.4064 9.23623 26.3444 9.17417 26.2559ZM16.3883 25.0547L17.5151 26.6651L19.4037 27.2427C19.7527 27.349 19.8218 27.7316 19.6181 28.0028L18.4524 29.5494L18.4878 31.5248C18.4931 31.8686 18.16 32.0741 17.85 31.9677L16.0003 31.3317L14.133 31.9748C13.8868 32.0581 13.6211 31.9287 13.5378 31.6842C13.5148 31.6169 13.5077 31.5496 13.5148 31.4858L13.5467 29.5494L12.3579 27.9709C12.202 27.7654 12.2445 27.4713 12.45 27.3154C12.505 27.2746 12.5652 27.2481 12.6289 27.2339L14.4839 26.6651L15.6178 25.0476C15.7648 24.8368 16.0553 24.7854 16.268 24.9325C16.3157 24.9661 16.3565 25.0086 16.3883 25.0547ZM16.8437 27.3313L16.0003 26.1283L15.1606 27.3259C15.1021 27.4128 15.0171 27.4783 14.9108 27.512L13.5077 27.9408L14.3775 29.0959C14.4448 29.1862 14.4857 29.2854 14.4838 29.4024L14.459 30.8711C14.9214 30.7116 15.3873 30.5557 15.848 30.3928C15.9437 30.3609 16.05 30.3573 16.1528 30.3928L17.5418 30.8711L17.5169 29.4343C17.508 29.3244 17.5382 29.2093 17.6091 29.1136L18.4932 27.9408L17.09 27.5121C16.9943 27.4819 16.9057 27.4216 16.8437 27.3313ZM9.10686 18.4783C9.05723 18.225 9.22205 17.9787 9.47536 17.9291C9.73048 17.8795 9.97679 18.046 10.0245 18.2994L10.65 21.46L11.6421 18.2515C11.7183 18.0053 11.9787 17.8671 12.2268 17.9415C12.3809 17.9893 12.4925 18.1098 12.5368 18.255L13.5236 21.4617L14.1526 18.3082C14.2022 18.053 14.4467 17.8883 14.7018 17.9378C14.9552 17.9875 15.1198 18.2337 15.0703 18.4871L14.1615 23.0561C14.1331 23.205 14.0428 23.3343 13.9152 23.4193C13.8213 23.4813 13.7115 23.5115 13.6034 23.5132C13.4972 23.5132 13.3873 23.4831 13.2934 23.4228C13.1747 23.3466 13.0985 23.2457 13.056 23.1128L12.0887 19.9735L11.1249 23.0933C11.0895 23.2262 11.0027 23.3431 10.8875 23.4193C10.7936 23.4813 10.6837 23.5115 10.5757 23.5132C10.4676 23.5132 10.3595 23.4831 10.2639 23.4228C10.1753 23.3661 10.0991 23.2846 10.0514 23.1801C10.0354 23.1447 10.0212 23.1057 10.0141 23.065L9.10686 18.4783ZM16.4433 18.3968C16.4433 18.1382 16.6523 17.9292 16.911 17.9292C17.1697 17.9292 17.3805 18.1382 17.3805 18.3968V23.0545C17.3805 23.3132 17.1697 23.524 16.911 23.524C16.6523 23.524 16.4433 23.3131 16.4433 23.0545V18.3968Z" fill="white"/>
</g>
<defs>
<clipPath id="clip0_509_234">
<rect width="32" height="32" fill="white"/>
</clipPath>
</defs>
</svg>
